<svg data-name="レイヤー_2" xmlns="http://www.w3.org/2000/svg" viewBox="0 0 266.84 164.93"><path d="M38.01 39.54H2.1c-.54 0-.99-.45-.99-.99s.45-1.12.99-1.12h16.83v-9.58H5.7c-.54 0-1.03-.58-1.03-1.12s.5-1.04 1.03-1.04h25.92c.14-.85.86-1.53 1.76-1.53.99 0 1.8.81 1.8 1.8s-.77 1.8-1.8 1.8H22.13v9.76h14.04c.04-.99.9-1.75 1.89-1.75s1.89.85 1.89 1.89-.9 1.89-1.93 1.89zM36.3 9.57l-1.98 1.58c-.63.49-1.44-.05-1.12-.9l.9-2.56H7.23c-.22 1.57-1.12 3.91-2.75 4.59-.94.41-2.02.23-2.56-.63-.76-1.17-.09-2.7 1.21-2.97.99-.77 2.07-2.16 2.79-3.65.31-.67 1.44-.54 1.44.27v.54h11.56V1.7c0-.9.81-1.62 1.71-1.62S22.3.8 22.3 1.7v4.14h12.6c.99-1.26 3.01-1.08 3.83.36.94 1.71-.58 3.69-2.43 3.38zm-19.62 2.16c-1.71 4.59-6.53 8.95-13.37 10.93-.81.22-1.17-1.04-.4-1.4 5.08-2.43 9.31-6.97 11.07-11.83a1.907 1.907 0 013.46-.41c.63.99.22 2.16-.76 2.7zm21.87 8.51H27.03c-3.06 0-4.5-1.4-4.5-4.5V9.62c0-.85.67-1.53 1.53-1.53s1.58.67 1.58 1.53v6.21c0 1.21.27 1.44 1.44 1.44h9.4v-2.38c0-.41.31-.72.72-.72s.76.31.76.72v1.62c1.26-.5 2.66.36 2.66 1.75 0 1.17-.95 1.98-2.07 1.98zm24.48-4.91c0 .81-.67 1.44-1.44 1.44-.67 0-1.26-.45-1.39-1.03h-8.33v23.8c0 .81-.67 1.48-1.53 1.48-.81 0-1.44-.67-1.44-1.48V3.36c0-.85.63-1.49 1.44-1.49.54 0 1.08.27 1.3.68h8.64c.22-.5.72-.81 1.3-.81.77 0 1.44.63 1.44 1.44v12.15zM51.87 8.27h8.24V4.31h-8.24v3.96zm0 5.71h8.24v-3.96h-8.24v3.96zm20.56 19.8c0 .81-.63 1.44-1.44 1.44-.77 0-1.44-.63-1.44-1.4h-8.86v.54c0 .81-.63 1.44-1.44 1.44s-1.44-.63-1.44-1.44V20.5c0-.77.63-1.44 1.44-1.44.58 0 1.12.36 1.35.9h9.09c.18-.54.72-.9 1.31-.9.81 0 1.44.67 1.44 1.44v13.27zm-11.74-8.1h8.86v-4h-8.86v4zm0 6.39h8.86v-4.68h-8.86v4.68zm21.64 6.71c0 1.21-.76 2.02-1.98 2.02-1.49 0-2.38-1.62-1.71-2.88h-1.67c-.41 0-.72-.32-.72-.72s.31-.72.72-.72h2.38V15.74h-8.86c-.18.58-.72 1.03-1.4 1.03-.76 0-1.44-.63-1.44-1.44V3.18c0-.81.67-1.44 1.44-1.44.58 0 1.08.31 1.31.81h9.22c.27-.36.72-.63 1.21-.63.81 0 1.48.67 1.48 1.48v35.37zM70.59 8.27h8.77V4.31h-8.77v3.96zm0 5.71h8.77v-3.96h-8.77v3.96zm30.69 21.11c.14 1.26-.94 1.67-1.67.58-4.45-6.75-3.01-14.22-2.07-19.84.5-2.92.94-5.44.36-6.75-.45-1.03.63-1.89 1.49-1.03 2.43 2.43 1.67 5.4.67 9.18-.99 3.64-2.02 7.6-.58 11.92.36-1.57.72-3.15 1.3-4.63.45-1.21 2.16-.77 1.75.58-.99 3.24-1.62 6.57-1.26 9.99zm20.43-2.07c-5.49.13-10.8-.9-13.32-4-1.31-1.58-1.53-3.6-.86-5.94 1.44-4.81 3.92-7.6 6.21-9.18-1.93-.36-3.83-.94-5.22-1.98-.99-.72-.27-1.98.85-1.57 2.75 1.03 7.79 1.26 9.5 1.4.94-.41 2.02.27 2.02 1.3s-.72 1.35-1.62 1.48c-3.74.23-7.79 2.61-9.81 8.86-.45 1.4-.31 2.56.36 3.51 1.58 2.07 6.03 3.24 11.34 3.24 1.04-.5 2.16.27 2.16 1.39 0 .9-.72 1.49-1.62 1.49zm19.26 5.49c-.94-.18-1.67-1.04-1.53-2.07-1.44-2.56-3.78-5.08-5.62-6.66-.58-.49-.18-1.35.58-1.12 4.36 1.4 8.1 4.19 8.82 7.47.32 1.4-.67 2.75-2.25 2.39zM39.45 82.76h-8.64v5.9h1.93c.04-.85.77-1.57 1.67-1.57.95 0 1.67.76 1.67 1.71s-.76 1.67-1.62 1.67H21.73v4.05H35c.04-.9.86-1.66 1.8-1.66s1.75.81 1.75 1.8-.72 1.75-1.75 1.75H21.73v5.8c0 .81-.63 1.48-1.44 1.48s-1.49-.67-1.49-1.48v-5.8H2.87c-.54 0-.95-.41-.95-.94s.41-.99.95-.99h15.97v-4H4.71c-.5 0-.9-.4-.9-.9s.41-.94.9-.94H9.7v-5.85H1.02c-.54 0-.94-.4-.94-.94s.4-.94.94-.94H9.7v-5.17H5.29c-.5 0-.9-.45-.9-.94s.41-.95.9-.95h27c.09-.85.76-1.53 1.67-1.53s1.66.77 1.66 1.71c0 .85-.72 1.67-1.66 1.67h-3.15v5.22h6.79c.04-.94.81-1.67 1.75-1.67s1.75.77 1.75 1.75c0 .85-.67 1.8-1.67 1.8zm-1.89-14.09H27.12v2.11c0 .81-.68 1.48-1.49 1.48s-1.49-.67-1.49-1.48v-2.11h-7.78v2.11c0 .81-.67 1.48-1.49 1.48s-1.48-.67-1.48-1.48v-2.11H2.46c-.54 0-.95-.41-.95-.95s.41-.99.95-.99h10.89v-3.19c0-.81.72-1.48 1.53-1.48s1.49.67 1.49 1.48v3.24h7.78v-3.24c0-.81.68-1.48 1.49-1.48s1.53.67 1.53 1.48v3.24h8.59c.04-.94.85-1.67 1.8-1.67s1.75.81 1.75 1.8-.81 1.75-1.75 1.75zm-24.93 12.2h6.21v-5.22h-6.21v5.22zm0 7.78h6.21v-5.9h-6.21v5.9zm9.09-7.78h6.12v-5.22h-6.12v5.22zm0 7.78h6.12v-5.9h-6.12v5.9zm57.38-4.63c-1.58 1.67-5.13 3.01-13.77.31-1.3-.4-.81-2.16.54-1.75 7.47 2.11 9.9.54 10.53-.23.9-1.03.54-2.34.22-3.06-.72-1.8-2.92-3.78-5.4-3.87-3.78-.18-7.15 2.21-10.21 4.54 4.63 6.34 6.93 9.99 8.78 17.86.27 1.08-.41 1.98-1.44 1.98-.85 0-1.35-.54-1.53-1.67-1.3-7.65-3.87-11.83-7.69-16.74-3.1 2.38-6.12 4.05-8.73 1.71-1.04-.95.09-2.25 1.17-1.4.81.58 3.33-.85 5.8-2.52-1.21-1.44-3.29-3.51-2.56-5.53.94-2.7 7.47-2.16 7.74-3.38.04-.4-.22-.81-1.53-2.02-.81-.81 0-2.02.99-1.4 2.12 1.31 4.63 3.19 4.5 4.05-.18 1.22-1.62 1.4-3.6 1.67-1.85.27-4.37.68-4.82 1.75-.45 1.04.5 2.29 1.35 3.51 3.73-2.38 8.23-4.9 12.78-4.77 3.64.13 6.39 2.88 7.47 5.4.9 2.11.67 4.14-.58 5.53zm29.2 7.56c-1.8-.31-3.78-.63-5.8-.67-2.12-.04-3.6 1.08-4.18 2.11-.32.5-.5 1.21 0 1.94.85 1.21 3.6 2.25 9.36 1.71.95-.41 1.93.27 1.93 1.3 0 .77-.63 1.4-1.39 1.4-6.79.72-10.48-.63-11.88-2.79-.85-1.35-.9-2.74-.04-4.23 1.21-2.16 3.96-3.42 7.02-3.29.94.05 1.89.14 2.79.23 2.83.27 5.54.41 6.21-.54.36-.49.54-1.75-.85-4.77l-1.21-2.61c-1.62.72-3.51 1.39-5 1.62-3.06.5-5.17.14-6.39-1.17-.58-.67-1.3-1.98-.77-4.27.32-1.26 1.35-2.74 2.61-4.14-2.03-.04-3.42-1.04-4.41-2.07-.81-.9.32-2.02 1.21-1.26 1.85 1.53 3.51 1.4 5.9.14-.86-.85-1.62-1.44-2.38-1.8-.81-.36-.81-1.53.27-1.67 1.62-.18 2.97.58 4.37 2.07.94-.77 2.25-.45 2.25.99 0 .49-.22.9-.63 1.12 1.21 1.94 2.48 4.27 3.87 7.11.45-.27.81-.5 1.12-.63.86-1.08 2.66-.63 2.66.85 0 .58-.27 1.03-.86 1.35-.22.13-.85.36-1.75.85l1.44 3.01c1.93 4.09 2.38 6.25 1.44 7.51-1.21 1.58-3.64 1.12-6.88.58zm-3.1-19.22c-2.34 1.49-4.91 4.1-5.4 5.76-.31 1.08-.13 1.75.18 2.12.81.94 3.78.49 5.04.27 1.22-.18 2.75-.77 4.14-1.44-1.4-2.75-2.7-4.95-3.96-6.71zm9.22-.09c-.67.14-1.21-.23-1.4-.9-.49-.54-1.39-1.57-2.43-2.16-.76-.4-.41-1.44.45-1.26 2.52.54 3.92 1.62 4.27 2.65.18.72-.04 1.53-.9 1.67zm3.64-1.98c-.67.14-1.21-.27-1.39-.85-.5-.54-1.4-1.57-2.48-2.16-.76-.41-.4-1.44.45-1.26 2.47.45 4 1.58 4.32 2.61.22.77-.04 1.53-.9 1.67zm36.05 27.23c-1.89.94-7.2 1.26-11.61.9-3.78-.31-6.57-1.98-7.51-4.63-.86-2.29 0-4.81 2.29-7.11 1.57-1.57 3.51-2.97 5.44-4.18-.13-.85-.13-1.76-.18-2.97-.22-6.84-.76-10.93-3.15-12.55-.9-.63-.36-1.89.77-1.67 5.44 1.21 5.4 8.14 4.81 15.84 2.75-1.58 5.13-2.61 6.17-3.1 1.04-.81 2.66-.18 2.66 1.26 0 .68-.32 1.17-.95 1.49-.9.49-1.8.76-2.56 1.08-3.02 1.31-8.15 3.92-11.38 6.57-1.8 1.48-2.43 2.88-1.94 4.27.58 1.75 2.92 2.88 5.81 2.88 3.42 0 7.06-.36 9.76-.85 1.04-.67 2.52-.09 2.52 1.31 0 .67-.32 1.17-.95 1.48zm17.73-17.73c-.99.04-1.8-.72-1.8-1.71v-.04c-.58-.99-1.62-2.56-2.43-3.65-.45-.63.04-1.44.9-1.08 2.57 1.12 4.37 2.74 4.86 4 .45 1.12-.22 2.43-1.53 2.47zm1.17 13.32c1.8 2.34 2.7 4.95 2.83 7.69.04 1.12-.76 2.11-1.89 2.21-1.12.09-2.07-.72-2.16-1.85-.04-.49.04-.94.32-1.3-.27-3.87-.99-5.9-2.97-8.32-.54-.67-.04-1.62.81-1.21.18.09.63.45.95.67 1.8-4.32 3.51-8.55 5.35-13.18.36-.94 1.67-.49 1.35.54a412.93 412.93 0 01-4.59 14.76zm3.29-24.17c-.99-.14-1.71-.99-1.62-1.98-.5-.85-1.75-2.92-2.25-3.69-.58-.85.09-1.44.9-1.12 2.02.85 4.27 2.79 4.86 4.23s-.5 2.74-1.89 2.56zm29.83 8.33h-12.06v7.11h6.12c.27-.5.77-.81 1.4-.81.9 0 1.67.68 1.67 1.58v16.24c0 .9-.77 1.62-1.67 1.62s-1.58-.72-1.58-1.62v-1.03h-14.17v1.17c0 .9-.72 1.62-1.62 1.62s-1.58-.72-1.58-1.62V85.29c0-.9.72-1.57 1.62-1.57.54 0 1.04.27 1.3.67h5.4v-7.11h-11.11c-.54 0-.99-.45-.99-.99s.45-1.04.99-1.04h11.11v-7.56c-2.25.36-6.39.94-8.64 1.21-1.03.14-1.26-1.17-.27-1.44 5.54-1.39 11.11-2.88 15.88-4.27.4-.9 1.44-1.4 2.43-1.12 1.08.31 1.71 1.44 1.39 2.52-.18.68-.81 1.31-1.53 1.44-1.53.31-4.54.9-6.17 1.17v8.1h10.26c.04-.99.85-1.76 1.84-1.76s1.84.81 1.84 1.85-.85 1.89-1.89 1.89zm-6.12 21.19V86.27h-14.17v12.19h14.17zm48.24-29.2h-25.69c-2.47 4.14-5.4 7.33-9.04 10.17a.718.718 0 01-.99-1.04c4.09-4.72 7.65-10.75 9.13-15.61.27-.81.9-1.3 1.53-1.44 1.12-.23 2.25.5 2.48 1.58.22.94-.27 1.84-1.08 2.25-.27.68-.63 1.49-.99 2.21h22.77c0-1.04.85-1.89 1.89-1.89s1.89.85 1.89 1.89-.9 1.89-1.89 1.89zm-13.59 28.98a1.92 1.92 0 01-2.47-1.62c-.67-1.04-1.75-2.25-3.2-3.65-4.32 4.59-9.18 7.87-14.85 9.54-1.04.31-1.4-.9-.54-1.35 4.5-2.43 9.04-6.03 12.87-10.3-1.3-1.08-4.18-3.15-5.44-4-.9-.63-.27-1.67.63-1.31 1.21.45 4.99 2.21 6.66 3.15 1.3-1.67 3.01-4.09 3.65-5.4.36-.58.9-.99 1.66-1.03 1.08-.04 1.98.81 2.03 1.89.04.95-.58 1.71-1.44 1.94-1.03 1.71-2.07 3.19-3.06 4.41 2.88 2.02 4.18 3.78 4.77 5.22.36.99-.22 2.2-1.26 2.52zm15.03 3.64c-6.39-3.65-9.18-7.74-8.64-19.89l.04-.99H217.6c-.54 0-.95-.45-.95-.99 0-.5.41-.94.95-.94h23.76c.27-.45.76-.72 1.3-.72.9 0 1.62.68 1.62 1.58l-.04 2.52c-.18 9.31 1.17 12.46 5.08 15.34l1.17-2.02c.22-.36.67-.45 1.03-.27.32.23.41.67.23.99l-.95 1.58c1.12.04 1.98.94 1.98 2.07 0 1.57-1.75 2.52-3.11 1.75zm-7.51-26.73h-19.21c-.54 0-.95-.4-.95-.9 0-.54.41-.94.95-.94h17.41c0-1.08.86-1.89 1.89-1.89s1.89.85 1.89 1.89-.9 1.84-1.98 1.84zm22.27 25.2c-.94-.18-1.66-1.04-1.53-2.07-1.44-2.56-3.78-5.08-5.62-6.66-.58-.49-.18-1.35.58-1.12 4.37 1.4 8.1 4.19 8.82 7.47.32 1.4-.67 2.75-2.25 2.39zm-237.96 44.3c-1.39.32-2.88.63-4.27.99-2.38.58-5.13 1.39-6.88 2.43-1.8 1.04-2.61 2.88-1.94 5 .72 2.38 3.46 4.95 8.73 4.59.94-.32 1.93.41 1.93 1.44 0 .95-.67 1.35-1.53 1.49-6.3.95-10.3-3.01-11.38-6.52-.68-2.16-.27-4.28.94-5.85-.5.18-.99.31-1.48.49-1.98.63-3.29.9-3.96.04-.9-1.03.09-2.79 2.47-6.57.67-1.08 1.49-2.25 2.25-3.64 3.01-5.31 3.64-6.93 3.29-7.29-1.67 0-2.88 1.84-4.23 1.48-.72-.23-1.12-1.03-1.67-2.25-.45-1.08.99-1.75 1.58-.72q.27.54 2.21-.18c1.35-.49 3.92-1.84 5-.31.9 1.21.49 3.46-4.32 10.66-2.38 3.6-4.63 6.39-3.96 6.48.13.04.67-.04 1.53-.22 5.08-1.21 9.85-3.1 14.89-4.37.94-.36 2.02.32 2.02 1.35 0 .76-.54 1.3-1.21 1.48zm25.29 14.85c-3.73-1.58-5.76-6.03-5.49-12.02.18-3.78.5-6.7.81-9.09.72-5.44.72-7.02-1.71-8.68-.94-.63-.45-2.07.77-1.75 5.44 1.4 4.77 4.81 3.87 10.03-.45 2.52-.94 5.58-1.12 9.4-.18 4.81 1.04 8.01 3.56 9.18 3.73 1.71 9.81-1.08 17.1-7.69.95-.9 2.25.4 1.35 1.35-7.47 8.14-14.22 11.38-19.12 9.27zm55.4-25.83c-.81 0-3.51.49-4.32.81-1.67.63-3.06 1.26-4.18 2.7-2.25 2.88-3.11 6.93-2.83 12.01.18 3.11 1.04 5.04 2.56 5.85 1.94 1.08 4.59.04 6.34-.76.86-1.35 3.01-.76 3.01.9 0 .67-.31 1.12-.9 1.44-2.75 1.58-6.79 2.75-9.67 1.17-2.38-1.3-3.64-4.09-3.83-8.41-.18-5.45.95-9.63 3.33-12.6a90.96 90.96 0 00-3.87 2.02c-2.88 1.58-5.13 2.88-7.25 2.29-1.21-.36-2.25-1.39-3.15-2.92-.58-1.03.68-1.75 1.4-1.03 2.12 2.11 5.49.54 10.75-2.07 3.64-1.84 7.69-3.87 12.01-4.36 1.04-.13 2.12.18 2.12 1.44 0 .85-.67 1.58-1.53 1.53zm27.99 28.71c0 .86-.67 1.53-1.53 1.53s-1.53-.67-1.53-1.53v-.5h-8.15v1.08c0 .86-.67 1.58-1.57 1.58s-1.53-.72-1.53-1.58v-15.61c0-1.62 2.16-2.16 2.92-.76h8.55c.76-1.35 2.83-.86 2.83.76v15.03zm-11.21-2.34h8.15v-11.61h-8.15v11.61zm25.43-20.21c0 2.07-3.11 2.12-3.2.09H131.3c-.09 2.07-3.24 1.98-3.24-.09v-12.91c0-1.62 2.16-2.16 2.97-.81h15.34c.85-1.35 3.01-.81 3.01.81v12.91zm-18.09-1.8h14.89V128H131.3v10.03zm24.88 24.84c0 .85-.68 1.53-1.53 1.53s-1.58-.68-1.58-1.53v-1.04h-8.91v1.21c0 .86-.67 1.53-1.53 1.53s-1.53-.67-1.53-1.53v-15.57c0-1.53 1.89-2.07 2.75-.9h9.36c.68-1.49 2.97-1.04 2.97.63v15.66zm-12.01-2.83h8.91v-11.65h-8.91v11.65zm33.25-25.16h-4.32v4.9c.18-.23.45-.41.76-.32 2.12.54 4.5 2.34 4.95 3.65.36 1.12-.45 2.2-1.62 2.11-.72-.04-1.35-.63-1.49-1.35-.76-1.08-1.62-2.12-2.61-3.29v22.77c0 .81-.67 1.48-1.49 1.48s-1.48-.67-1.48-1.48v-20.7c-2.07 4.54-4.19 7.6-6.39 9.63-.72.67-1.62-.04-1.08-.9 2.88-4.59 5.62-11.02 7.06-16.51h-5.44c-.54 0-.95-.41-.95-.95s.41-.99.95-.99h5.8v-7.65c0-.81.72-1.48 1.53-1.48s1.49.68 1.49 1.48v7.69h2.75c.13-.72.81-1.26 1.57-1.26.9 0 1.58.67 1.58 1.57s-.76 1.58-1.58 1.58zm27.14 10.85l-1.26-.31c.18 1.44-1.08 2.29-2.43 1.8-3.69-1.35-7.02-3.51-9.63-6.34-3.82 4.36-8.23 7.51-12.78 9.36-.99.41-1.53-.77-.63-1.31 4-2.43 7.96-5.99 11.43-10.48-1.67-2.43-2.61-4.82-3.06-6.53-1.89 3.15-4 5.67-6.03 7.33-.81.67-1.62-.18-1.08-.95 3.15-4.36 5.36-8.77 6.84-13.14.27-.58.72-1.08 1.35-1.21.99-.23 1.98.4 2.21 1.4.18.85-.27 1.71-.99 2.07-.14.36-.36.81-.58 1.3h7.33c.99-1.3 3.11-.99 3.6.63.31 1.08-.32 2.29-1.53 2.61-1.04 2.02-2.61 4.59-4.37 6.84 3.2 2.7 7.11 4.46 11.92 5.49.41.09.63.45.54.85s-.45.67-.86.58zm-5.31 17.46c0 .85-.67 1.48-1.53 1.48-.99 0-1.53-.76-1.53-1.67h-10.98c0 .9-.54 1.67-1.53 1.67-.85 0-1.53-.63-1.53-1.48V150.5c0-.85.67-1.53 1.53-1.53.58 0 1.08.27 1.35.77h11.34c.27-.5.77-.77 1.35-.77.85 0 1.53.67 1.53 1.53v12.69zm-14.04-2.07h10.98v-9.5h-10.98v9.5zm2.2-30.6c.5 1.93 1.57 4 3.24 5.98 1.17-1.71 2.61-3.91 3.65-5.98h-6.88zm51.48 8.77c-3.6 3.01-10.57 7.6-13.45 9.54.18 2.02.04 3.96-.09 4.99.31.95-.32 1.94-1.35 1.94-.76 0-1.35-.58-1.48-1.31.13-1.3.27-2.61.27-3.91-.67.49-1.39.9-2.16 1.39-.99.63-2.56 1.8-2.29 2.92.32 1.35 3.06 2.66 5.4 2.88 3.33.36 7.88-.31 10.26-.81.94-.41 2.02.31 2.02 1.35 0 .76-.54 1.35-1.26 1.49-3.24.58-7.88 1.12-11.52.63-2.47-.36-6.34-1.85-7.02-4.63-.5-1.94.63-3.78 3.29-5.71l3.15-2.3c-.18-1.44-.5-2.97-1.44-3.46-1.04-.5-2.12-.27-2.79.45l-1.44 2.66c-.22.58-.67.9-1.3.9-1.35 0-1.93-1.71-.9-2.52.32-.5.58-.9.99-1.39 2.34-3.83 3.69-6.84 4.41-9.18-2.12-.31-3.42-1.4-5.17-3.55-.95-.81.4-2.21 1.44-1.17.86.85 2.57 1.98 4.41 2.02.13-.58.27-2.11.09-2.7-.22-.27-.32-.54-.32-.85 0-1.21 1.4-1.71 2.29-.9.68.67.9 1.62.77 2.56-.04.9.81 1.4 1.48 1.35 1.71-.14 2.25 2.38.23 2.88-.86.22-1.75.31-2.66.36-.67 2.02-1.62 4.36-3.01 7.06 2.88-.31 4.46 1.12 5.22 3.83 2.66-1.94 8.5-6.21 11.38-8.64.72-1.58 3.1-1.17 3.1.63 0 .54-.18.95-.54 1.21zm15.39 22.73c-3.01 0-5.44-2.43-5.44-5.44s2.43-5.44 5.44-5.44 5.49 2.43 5.49 5.44-2.43 5.44-5.49 5.44zm0-9.41c-2.16 0-3.96 1.75-3.96 3.96s1.8 4 3.96 4 4-1.8 4-4-1.8-3.96-4-3.96z" fill="#fff" stroke="#fff" stroke-linecap="round" stroke-linejoin="round" stroke-width=".15" data-name="レイヤー_1"/></svg>