<svg data-name="レイヤー 2" xmlns="http://www.w3.org/2000/svg" viewBox="0 0 179.98 144.73"><path d="M0 103.81V41.02C0 27.93 4.1 17.83 12.3 10.7S29.88 0 40.43 0s19.84 3.56 28.08 10.69c8.24 7.13 12.35 17.24 12.35 30.32v62.79c0 13.09-4.12 23.18-12.35 30.27-8.24 7.1-17.59 10.64-28.08 10.64s-19.92-3.55-28.12-10.64C4.1 126.99 0 116.89 0 103.81zm60.45-1.17V42.19c0-6.84-1.84-12.17-5.52-16.02-3.68-3.84-8.51-5.76-14.5-5.76s-10.91 1.92-14.55 5.76c-3.65 3.84-5.47 9.18-5.47 16.02v60.45c0 6.9 1.82 12.26 5.47 16.06 3.65 3.81 8.5 5.71 14.55 5.71s10.82-1.9 14.5-5.71c3.68-3.81 5.52-9.16 5.52-16.06zm38.37 40.91v-19.14l55.66-69.63c2.15-2.73 3.55-5.24 4.2-7.52.65-2.28.98-4.49.98-6.64 0-4.95-1.76-9.55-5.27-13.82-3.52-4.26-8.3-6.4-14.36-6.4-5.53 0-10.27 1.84-14.21 5.52-3.94 3.68-6.14 8.71-6.59 15.09H98.82c.06-11.52 4-21.24 11.82-29.15S127.73 0 138.47 0c11.85 0 21.73 3.99 29.64 11.96 7.91 7.98 11.87 17.59 11.87 28.86 0 9.64-2.83 17.97-8.5 25l-45.8 57.42h54.3v20.31H98.83z" data-name="レイヤー 1"/></svg>