<svg data-name="レイヤー 2" xmlns="http://www.w3.org/2000/svg" viewBox="0 0 178.61 144.73"><path d="M0 103.81V41.02C0 27.93 4.1 17.83 12.3 10.7S29.88 0 40.43 0s19.84 3.56 28.08 10.69c8.24 7.13 12.35 17.24 12.35 30.32v62.79c0 13.09-4.12 23.18-12.35 30.27-8.24 7.1-17.59 10.64-28.08 10.64s-19.92-3.55-28.12-10.64C4.1 126.99 0 116.89 0 103.81zm60.45-1.17V42.19c0-6.84-1.84-12.17-5.52-16.02-3.68-3.84-8.51-5.76-14.5-5.76s-10.91 1.92-14.55 5.76c-3.65 3.84-5.47 9.18-5.47 16.02v60.45c0 6.9 1.82 12.26 5.47 16.06 3.65 3.81 8.5 5.71 14.55 5.71s10.82-1.9 14.5-5.71c3.68-3.81 5.52-9.16 5.52-16.06zm67.18-23.44V61.23h7.03c6.77 0 12.12-1.9 16.06-5.71 3.94-3.81 5.91-8.64 5.91-14.5s-2.05-10.68-6.15-14.65c-4.1-3.97-8.98-5.96-14.65-5.96-4.3 0-8.37 1.43-12.21 4.3-3.84 2.87-6.32 7.16-7.42 12.89H95.79c.78-10.03 4.98-18.8 12.6-26.32S124.9 0 135.05 0c12.7 0 22.87 4.18 30.52 12.55 7.65 8.37 11.47 17.72 11.47 28.08 0 5.47-1.07 10.79-3.22 15.97s-6.15 9.65-12.01 13.43c5.99 3.84 10.29 8.56 12.89 14.16 2.6 5.6 3.91 11.26 3.91 16.99 0 13.28-4.17 23.86-12.5 31.74-8.33 7.88-18.55 11.82-30.66 11.82-9.64 0-18.31-3.11-26.03-9.33-7.71-6.22-12.52-15.28-14.4-27.2h20.41c1.89 4.88 4.43 8.81 7.62 11.77 3.19 2.96 7.71 4.44 13.57 4.44s10.68-2 15.04-6.01c4.36-4 6.54-9.52 6.54-16.55s-2.17-12.65-6.49-16.65c-4.33-4-9.49-6.01-15.48-6.01h-8.59z" data-name="レイヤー 1"/></svg>