<?xml version="1.0" encoding="UTF-8"?>
<svg id="_レイヤー_2" data-name="レイヤー_2" xmlns="http://www.w3.org/2000/svg" viewBox="0 0 1093.1 66.19">
  <defs>
    <style>
      .cls-1 {
        fill: #fff;
        stroke: #fff;
        stroke-linecap: round;
        stroke-linejoin: round;
        stroke-width: .25px;
      }
    </style>
  </defs>
  <g id="_レイヤー_1-2" data-name="レイヤー_1">
    <g>
      <path class="cls-1" d="M57.53,62.5H1.67c-.84,0-1.54-.7-1.54-1.54s.7-1.75,1.54-1.75h26.18v-14.91H7.27c-.84,0-1.61-.91-1.61-1.75s.77-1.61,1.61-1.61h40.32c.21-1.33,1.33-2.38,2.73-2.38,1.54,0,2.8,1.26,2.8,2.8s-1.19,2.8-2.8,2.8h-17.5v15.19h21.84c.07-1.54,1.4-2.73,2.94-2.73s2.94,1.33,2.94,2.94-1.4,2.94-3.01,2.94ZM54.87,15.87l-3.08,2.45c-.98.77-2.24-.07-1.75-1.4l1.4-3.99H9.65c-.35,2.45-1.75,6.09-4.27,7.14-1.47.63-3.15.35-3.99-.98-1.19-1.82-.14-4.2,1.89-4.62,1.54-1.19,3.22-3.36,4.34-5.67.49-1.05,2.24-.84,2.24.42v.84h17.99V3.62c0-1.4,1.26-2.52,2.66-2.52s2.59,1.12,2.59,2.52v6.44h19.6c1.54-1.96,4.69-1.68,5.95.56,1.47,2.66-.91,5.74-3.78,5.25ZM24.35,19.23c-2.66,7.14-10.15,13.93-20.79,17.01-1.26.35-1.82-1.61-.63-2.17,7.91-3.78,14.49-10.85,17.22-18.41.91-2.59,4.13-2.73,5.39-.63.98,1.54.35,3.36-1.19,4.2ZM58.37,32.46h-17.92c-4.76,0-7-2.17-7-7v-9.52c0-1.33,1.05-2.38,2.38-2.38s2.45,1.05,2.45,2.38v9.66c0,1.89.42,2.24,2.24,2.24h14.63v-3.71c0-.63.49-1.12,1.12-1.12s1.19.49,1.19,1.12v2.52c1.96-.77,4.13.56,4.13,2.73,0,1.82-1.47,3.08-3.22,3.08Z"/>
      <path class="cls-1" d="M96.45,24.83c0,1.26-1.05,2.24-2.24,2.24-1.05,0-1.96-.7-2.17-1.61h-12.95v37.03c0,1.26-1.05,2.31-2.38,2.31-1.26,0-2.24-1.05-2.24-2.31V6.21c0-1.33.98-2.31,2.24-2.31.84,0,1.68.42,2.03,1.05h13.44c.35-.77,1.12-1.26,2.03-1.26,1.19,0,2.24.98,2.24,2.24v18.9ZM79.09,13.84h12.81v-6.16h-12.81v6.16ZM79.09,22.73h12.81v-6.16h-12.81v6.16ZM111.08,53.53c0,1.26-.98,2.24-2.24,2.24-1.19,0-2.24-.98-2.24-2.17h-13.79v.84c0,1.26-.98,2.24-2.24,2.24s-2.24-.98-2.24-2.24v-21.56c0-1.19.98-2.24,2.24-2.24.91,0,1.75.56,2.1,1.4h14.14c.28-.84,1.12-1.4,2.03-1.4,1.26,0,2.24,1.05,2.24,2.24v20.65ZM92.81,40.93h13.79v-6.23h-13.79v6.23ZM92.81,50.87h13.79v-7.28h-13.79v7.28ZM126.48,61.31c0,1.89-1.19,3.15-3.08,3.15-2.31,0-3.71-2.52-2.66-4.48h-2.59c-.63,0-1.12-.49-1.12-1.12s.49-1.12,1.12-1.12h3.71V25.46h-13.79c-.28.91-1.12,1.61-2.17,1.61-1.19,0-2.24-.98-2.24-2.24V5.93c0-1.26,1.05-2.24,2.24-2.24.91,0,1.68.49,2.03,1.26h14.35c.42-.56,1.12-.98,1.89-.98,1.26,0,2.31,1.05,2.31,2.31v55.03ZM108.21,13.84h13.65v-6.16h-13.65v6.16ZM108.21,22.73h13.65v-6.16h-13.65v6.16Z"/>
      <path class="cls-1" d="M155.95,55.56c.21,1.96-1.47,2.59-2.59.91-6.93-10.5-4.69-22.12-3.22-30.87.77-4.55,1.47-8.47.56-10.5-.7-1.61.98-2.94,2.31-1.61,3.78,3.78,2.59,8.4,1.05,14.28-1.54,5.67-3.15,11.83-.91,18.55.56-2.45,1.12-4.9,2.03-7.21.7-1.89,3.36-1.19,2.73.91-1.54,5.04-2.52,10.22-1.96,15.54ZM187.73,52.34c-8.54.21-16.8-1.4-20.72-6.23-2.03-2.45-2.38-5.6-1.33-9.24,2.24-7.49,6.09-11.83,9.66-14.28-3.01-.56-5.95-1.47-8.12-3.08-1.54-1.12-.42-3.08,1.33-2.45,4.27,1.61,12.11,1.96,14.77,2.17,1.47-.63,3.15.42,3.15,2.03s-1.12,2.1-2.52,2.31c-5.81.35-12.11,4.06-15.26,13.79-.7,2.17-.49,3.99.56,5.46,2.45,3.22,9.38,5.04,17.64,5.04,1.61-.77,3.36.42,3.36,2.17,0,1.4-1.12,2.31-2.52,2.31Z"/>
      <path class="cls-1" d="M217.69,60.89c-1.47-.28-2.59-1.61-2.38-3.22-2.24-3.99-5.88-7.91-8.75-10.36-.91-.77-.28-2.1.91-1.75,6.79,2.17,12.6,6.51,13.72,11.62.49,2.17-1.05,4.27-3.5,3.71Z"/>
      <path class="cls-1" d="M308.97,33.51h-13.44v9.17h3.01c.07-1.33,1.19-2.45,2.59-2.45,1.47,0,2.59,1.19,2.59,2.66s-1.19,2.59-2.52,2.59h-19.81v6.3h20.65c.07-1.4,1.33-2.59,2.8-2.59s2.73,1.26,2.73,2.8-1.12,2.73-2.73,2.73h-23.45v9.03c0,1.26-.98,2.31-2.24,2.31s-2.31-1.05-2.31-2.31v-9.03h-24.78c-.84,0-1.47-.63-1.47-1.47s.63-1.54,1.47-1.54h24.85v-6.23h-21.98c-.77,0-1.4-.63-1.4-1.4s.63-1.47,1.4-1.47h7.77v-9.1h-13.51c-.84,0-1.47-.63-1.47-1.47s.63-1.47,1.47-1.47h13.51v-8.05h-6.86c-.77,0-1.4-.7-1.4-1.47s.63-1.47,1.4-1.47h42c.14-1.33,1.19-2.38,2.59-2.38,1.47,0,2.59,1.19,2.59,2.66,0,1.33-1.12,2.59-2.59,2.59h-4.9v8.12h10.57c.07-1.47,1.26-2.59,2.73-2.59s2.73,1.19,2.73,2.73c0,1.33-1.05,2.8-2.59,2.8ZM306.03,11.6h-16.24v3.29c0,1.26-1.05,2.31-2.31,2.31s-2.31-1.05-2.31-2.31v-3.29h-12.11v3.29c0,1.26-1.05,2.31-2.31,2.31s-2.31-1.05-2.31-2.31v-3.29h-17.01c-.84,0-1.47-.63-1.47-1.47s.63-1.54,1.47-1.54h16.94V3.62c0-1.26,1.12-2.31,2.38-2.31s2.31,1.05,2.31,2.31v5.04h12.11V3.62c0-1.26,1.05-2.31,2.31-2.31s2.38,1.05,2.38,2.31v5.04h13.37c.07-1.47,1.33-2.59,2.8-2.59s2.73,1.26,2.73,2.8-1.26,2.73-2.73,2.73ZM267.25,30.57h9.66v-8.12h-9.66v8.12ZM267.25,42.68h9.66v-9.17h-9.66v9.17ZM281.39,30.57h9.52v-8.12h-9.52v8.12ZM281.39,42.68h9.52v-9.17h-9.52v9.17Z"/>
      <path class="cls-1" d="M370.64,35.47c-2.45,2.59-7.98,4.69-21.42.49-2.03-.63-1.26-3.36.84-2.73,11.62,3.29,15.4.84,16.38-.35,1.4-1.61.84-3.64.35-4.76-1.12-2.8-4.55-5.88-8.4-6.02-5.88-.28-11.13,3.43-15.89,7.07,7.21,9.87,10.78,15.54,13.65,27.79.42,1.68-.63,3.08-2.24,3.08-1.33,0-2.1-.84-2.38-2.59-2.03-11.9-6.02-18.41-11.97-26.04-4.83,3.71-9.52,6.3-13.58,2.66-1.61-1.47.14-3.5,1.82-2.17,1.26.91,5.18-1.33,9.03-3.92-1.89-2.24-5.11-5.46-3.99-8.61,1.47-4.2,11.62-3.36,12.04-5.25.07-.63-.35-1.26-2.38-3.15-1.26-1.26,0-3.15,1.54-2.17,3.29,2.03,7.21,4.97,7,6.3-.28,1.89-2.52,2.17-5.6,2.59-2.87.42-6.79,1.05-7.49,2.73-.7,1.61.77,3.57,2.1,5.46,5.81-3.71,12.81-7.63,19.88-7.42,5.67.21,9.94,4.48,11.62,8.4,1.4,3.29,1.05,6.44-.91,8.61Z"/>
      <path class="cls-1" d="M416.07,47.23c-2.8-.49-5.88-.98-9.03-1.05-3.29-.07-5.6,1.68-6.51,3.29-.49.77-.77,1.89,0,3.01,1.33,1.89,5.6,3.5,14.56,2.66,1.47-.63,3.01.42,3.01,2.03,0,1.19-.98,2.17-2.17,2.17-10.57,1.12-16.31-.98-18.48-4.34-1.33-2.1-1.4-4.27-.07-6.58,1.89-3.36,6.16-5.32,10.92-5.11,1.47.07,2.94.21,4.34.35,4.41.42,8.61.63,9.66-.84.56-.77.84-2.73-1.33-7.42l-1.89-4.06c-2.52,1.12-5.46,2.17-7.77,2.52-4.76.77-8.05.21-9.94-1.82-.91-1.05-2.03-3.08-1.19-6.65.49-1.96,2.1-4.27,4.06-6.44-3.15-.07-5.32-1.61-6.86-3.22-1.26-1.4.49-3.15,1.89-1.96,2.87,2.38,5.46,2.17,9.17.21-1.33-1.33-2.52-2.24-3.71-2.8-1.26-.56-1.26-2.38.42-2.59,2.52-.28,4.62.91,6.79,3.22,1.47-1.19,3.5-.7,3.5,1.54,0,.77-.35,1.4-.98,1.75,1.89,3.01,3.85,6.65,6.02,11.06.7-.42,1.26-.77,1.75-.98,1.33-1.68,4.13-.98,4.13,1.33,0,.91-.42,1.61-1.33,2.1-.35.21-1.33.56-2.73,1.33l2.24,4.69c3.01,6.37,3.71,9.73,2.24,11.69-1.89,2.45-5.67,1.75-10.71.91ZM411.24,17.34c-3.64,2.31-7.63,6.37-8.4,8.96-.49,1.68-.21,2.73.28,3.29,1.26,1.47,5.88.77,7.84.42,1.89-.28,4.27-1.19,6.44-2.24-2.17-4.27-4.2-7.7-6.16-10.43ZM425.59,17.2c-1.05.21-1.89-.35-2.17-1.4-.77-.84-2.17-2.45-3.78-3.36-1.19-.63-.63-2.24.7-1.96,3.92.84,6.09,2.52,6.65,4.13.28,1.12-.07,2.38-1.4,2.59ZM431.26,14.12c-1.05.21-1.89-.42-2.17-1.33-.77-.84-2.17-2.45-3.85-3.36-1.19-.63-.63-2.24.7-1.96,3.85.7,6.23,2.45,6.72,4.06.35,1.19-.07,2.38-1.4,2.59Z"/>
      <path class="cls-1" d="M487.33,56.48c-2.94,1.47-11.2,1.96-18.06,1.4-5.88-.49-10.22-3.08-11.69-7.21-1.33-3.57,0-7.49,3.57-11.06,2.45-2.45,5.46-4.62,8.47-6.51-.21-1.33-.21-2.73-.28-4.62-.35-10.64-1.19-17.01-4.9-19.53-1.4-.98-.56-2.94,1.19-2.59,8.47,1.89,8.4,12.67,7.49,24.64,4.27-2.45,7.98-4.06,9.59-4.83,1.61-1.26,4.13-.28,4.13,1.96,0,1.05-.49,1.82-1.47,2.31-1.4.77-2.8,1.19-3.99,1.68-4.69,2.03-12.67,6.09-17.71,10.22-2.8,2.31-3.78,4.48-3.01,6.65.91,2.73,4.55,4.48,9.03,4.48,5.32,0,10.99-.56,15.19-1.33,1.61-1.05,3.92-.14,3.92,2.03,0,1.05-.49,1.82-1.47,2.31Z"/>
      <path class="cls-1" d="M514.91,28.89c-1.54.07-2.8-1.12-2.8-2.66v-.07c-.91-1.54-2.52-3.99-3.78-5.67-.7-.98.07-2.24,1.4-1.68,3.99,1.75,6.79,4.27,7.56,6.23.7,1.75-.35,3.78-2.38,3.85ZM516.73,49.61c2.8,3.64,4.2,7.7,4.41,11.97.07,1.75-1.19,3.29-2.94,3.43-1.75.14-3.22-1.12-3.36-2.87-.07-.77.07-1.47.49-2.03-.42-6.02-1.54-9.17-4.62-12.95-.84-1.05-.07-2.52,1.26-1.89.28.14.98.7,1.47,1.05,2.8-6.72,5.46-13.3,8.33-20.51.56-1.47,2.59-.77,2.1.84-2.24,7.7-4.76,15.82-7.14,22.96ZM521.84,12.02c-1.54-.21-2.66-1.54-2.52-3.08-.77-1.33-2.73-4.55-3.5-5.74-.91-1.33.14-2.24,1.4-1.75,3.15,1.33,6.65,4.34,7.56,6.58s-.77,4.27-2.94,3.99ZM568.25,24.97h-18.76v11.06h9.52c.42-.77,1.19-1.26,2.17-1.26,1.4,0,2.59,1.05,2.59,2.45v25.27c0,1.4-1.19,2.52-2.59,2.52s-2.45-1.12-2.45-2.52v-1.61h-22.05v1.82c0,1.4-1.12,2.52-2.52,2.52s-2.45-1.12-2.45-2.52v-25.27c0-1.4,1.12-2.45,2.52-2.45.84,0,1.61.42,2.03,1.05h8.4v-11.06h-17.29c-.84,0-1.54-.7-1.54-1.54s.7-1.61,1.54-1.61h17.29v-11.76c-3.5.56-9.94,1.47-13.44,1.89-1.61.21-1.96-1.82-.42-2.24,8.61-2.17,17.29-4.48,24.71-6.65.63-1.4,2.24-2.17,3.78-1.75,1.68.49,2.66,2.24,2.17,3.92-.28,1.05-1.26,2.03-2.38,2.24-2.38.49-7.07,1.4-9.59,1.82v12.6h15.96c.07-1.54,1.33-2.73,2.87-2.73s2.87,1.26,2.87,2.87-1.33,2.94-2.94,2.94ZM558.73,57.95v-18.97h-22.05v18.97h22.05Z"/>
      <path class="cls-1" d="M633.77,12.51h-39.97c-3.85,6.44-8.4,11.41-14.07,15.82-1.12.91-2.52-.49-1.54-1.61,6.37-7.35,11.9-16.73,14.21-24.29.42-1.26,1.4-2.03,2.38-2.24,1.75-.35,3.5.77,3.85,2.45.35,1.47-.42,2.87-1.68,3.5-.42,1.05-.98,2.31-1.54,3.43h35.42c0-1.61,1.33-2.94,2.94-2.94s2.94,1.33,2.94,2.94-1.4,2.94-2.94,2.94ZM612.63,57.6c-1.82.56-3.64-.7-3.85-2.52-1.05-1.61-2.73-3.5-4.97-5.67-6.72,7.14-14.28,12.25-23.1,14.84-1.61.49-2.17-1.4-.84-2.1,7-3.78,14.07-9.38,20.02-16.03-2.03-1.68-6.51-4.9-8.47-6.23-1.4-.98-.42-2.59.98-2.03,1.89.7,7.77,3.43,10.36,4.9,2.03-2.59,4.69-6.37,5.67-8.4.56-.91,1.4-1.54,2.59-1.61,1.68-.07,3.08,1.26,3.15,2.94.07,1.47-.91,2.66-2.24,3.01-1.61,2.66-3.22,4.97-4.76,6.86,4.48,3.15,6.51,5.88,7.42,8.12.56,1.54-.35,3.43-1.96,3.92ZM636.01,63.27c-9.94-5.67-14.28-12.04-13.44-30.94l.07-1.54h-36.54c-.84,0-1.47-.7-1.47-1.54,0-.77.63-1.47,1.47-1.47h36.96c.42-.7,1.19-1.12,2.03-1.12,1.4,0,2.52,1.05,2.52,2.45l-.07,3.92c-.28,14.49,1.82,19.39,7.91,23.87l1.82-3.15c.35-.56,1.05-.7,1.61-.42.49.35.63,1.05.35,1.54l-1.47,2.45c1.75.07,3.08,1.47,3.08,3.22,0,2.45-2.73,3.92-4.83,2.73ZM624.32,21.68h-29.89c-.84,0-1.47-.63-1.47-1.4,0-.84.63-1.47,1.47-1.47h27.09c0-1.68,1.33-2.94,2.94-2.94s2.94,1.33,2.94,2.94-1.4,2.87-3.08,2.87Z"/>
      <path class="cls-1" d="M658.97,60.89c-1.47-.28-2.59-1.61-2.38-3.22-2.24-3.99-5.88-7.91-8.75-10.36-.91-.77-.28-2.1.91-1.75,6.79,2.17,12.6,6.51,13.72,11.62.49,2.17-1.05,4.27-3.5,3.71Z"/>
      <path class="cls-1" d="M730.09,33.58c-2.17.49-4.48.98-6.65,1.54-3.71.91-7.98,2.17-10.71,3.78-2.8,1.61-4.06,4.48-3.01,7.77,1.12,3.71,5.39,7.7,13.58,7.14,1.47-.49,3.01.63,3.01,2.24,0,1.47-1.05,2.1-2.38,2.31-9.8,1.47-16.03-4.69-17.71-10.15-1.05-3.36-.42-6.65,1.47-9.1-.77.28-1.54.49-2.31.77-3.08.98-5.11,1.4-6.16.07-1.4-1.61.14-4.34,3.85-10.22,1.05-1.68,2.31-3.5,3.5-5.67,4.69-8.26,5.67-10.78,5.11-11.34-2.59,0-4.48,2.87-6.58,2.31-1.12-.35-1.75-1.61-2.59-3.5-.7-1.68,1.54-2.73,2.45-1.12q.42.84,3.43-.28c2.1-.77,6.09-2.87,7.77-.49,1.4,1.89.77,5.39-6.72,16.59-3.71,5.6-7.21,9.94-6.16,10.08.21.07,1.05-.07,2.38-.35,7.91-1.89,15.33-4.83,23.17-6.79,1.47-.56,3.15.49,3.15,2.1,0,1.19-.84,2.03-1.89,2.31Z"/>
      <path class="cls-1" d="M769.43,56.69c-5.81-2.45-8.96-9.38-8.54-18.69.28-5.88.77-10.43,1.26-14.14,1.12-8.47,1.12-10.92-2.66-13.51-1.47-.98-.7-3.22,1.19-2.73,8.47,2.17,7.42,7.49,6.02,15.61-.7,3.92-1.47,8.68-1.75,14.63-.28,7.49,1.61,12.46,5.53,14.28,5.81,2.66,15.26-1.68,26.6-11.97,1.47-1.4,3.5.63,2.1,2.1-11.62,12.67-22.12,17.71-29.75,14.42Z"/>
      <path class="cls-1" d="M855.6,16.5c-1.26,0-5.46.77-6.72,1.26-2.59.98-4.76,1.96-6.51,4.2-3.5,4.48-4.83,10.78-4.41,18.69.28,4.83,1.61,7.84,3.99,9.1,3.01,1.68,7.14.07,9.87-1.19,1.33-2.1,4.69-1.19,4.69,1.4,0,1.05-.49,1.75-1.4,2.24-4.27,2.45-10.57,4.27-15.05,1.82-3.71-2.03-5.67-6.37-5.95-13.09-.28-8.47,1.47-14.98,5.18-19.6-2.17,1.05-4.13,2.1-6.02,3.15-4.48,2.45-7.98,4.48-11.27,3.57-1.89-.56-3.5-2.17-4.9-4.55-.91-1.61,1.05-2.73,2.17-1.61,3.29,3.29,8.54.84,16.73-3.22,5.67-2.87,11.97-6.02,18.69-6.79,1.61-.21,3.29.28,3.29,2.24,0,1.33-1.05,2.45-2.38,2.38Z"/>
      <path class="cls-1" d="M899.14,61.17c0,1.33-1.05,2.38-2.38,2.38s-2.38-1.05-2.38-2.38v-.77h-12.67v1.68c0,1.33-1.05,2.45-2.45,2.45s-2.38-1.12-2.38-2.45v-24.29c0-2.52,3.36-3.36,4.55-1.19h13.3c1.19-2.1,4.41-1.33,4.41,1.19v23.38ZM881.71,57.53h12.67v-18.06h-12.67v18.06ZM921.26,26.09c0,3.22-4.83,3.29-4.97.14h-23.17c-.14,3.22-5.04,3.08-5.04-.14V6c0-2.52,3.36-3.36,4.62-1.26h23.87c1.33-2.1,4.69-1.26,4.69,1.26v20.09ZM893.12,23.29h23.17V7.68h-23.17v15.61ZM931.84,61.94c0,1.33-1.05,2.38-2.38,2.38s-2.45-1.05-2.45-2.38v-1.61h-13.86v1.89c0,1.33-1.05,2.38-2.38,2.38s-2.38-1.05-2.38-2.38v-24.22c0-2.38,2.94-3.22,4.27-1.4h14.56c1.05-2.31,4.62-1.61,4.62.98v24.36ZM913.14,57.53h13.86v-18.13h-13.86v18.13Z"/>
      <path class="cls-1" d="M964.87,18.39h-6.72v7.63c.28-.35.7-.63,1.19-.49,3.29.84,7,3.64,7.7,5.67.56,1.75-.7,3.43-2.52,3.29-1.12-.07-2.1-.98-2.31-2.1-1.19-1.68-2.52-3.29-4.06-5.11v35.42c0,1.26-1.05,2.31-2.31,2.31s-2.31-1.05-2.31-2.31V30.5c-3.22,7.07-6.51,11.83-9.94,14.98-1.12,1.05-2.52-.07-1.68-1.4,4.48-7.14,8.75-17.15,10.99-25.69h-8.47c-.84,0-1.47-.63-1.47-1.47s.63-1.54,1.47-1.54h9.03V3.48c0-1.26,1.12-2.31,2.38-2.31s2.31,1.05,2.31,2.31v11.97h4.27c.21-1.12,1.26-1.96,2.45-1.96,1.4,0,2.45,1.05,2.45,2.45s-1.19,2.45-2.45,2.45ZM1007.09,35.26l-1.96-.49c.28,2.24-1.68,3.57-3.78,2.8-5.74-2.1-10.92-5.46-14.98-9.87-5.95,6.79-12.81,11.69-19.88,14.56-1.54.63-2.38-1.19-.98-2.03,6.23-3.78,12.39-9.31,17.78-16.31-2.59-3.78-4.06-7.49-4.76-10.15-2.94,4.9-6.23,8.82-9.38,11.41-1.26,1.05-2.52-.28-1.68-1.47,4.9-6.79,8.33-13.65,10.64-20.44.42-.91,1.12-1.68,2.1-1.89,1.54-.35,3.08.63,3.43,2.17.28,1.33-.42,2.66-1.54,3.22-.21.56-.56,1.26-.91,2.03h11.41c1.54-2.03,4.83-1.54,5.6.98.49,1.68-.49,3.57-2.38,4.06-1.61,3.15-4.06,7.14-6.79,10.64,4.97,4.2,11.06,6.93,18.55,8.54.63.14.98.7.84,1.33-.14.63-.7,1.05-1.33.91ZM998.83,62.43c0,1.33-1.05,2.31-2.38,2.31-1.54,0-2.38-1.19-2.38-2.59h-17.08c0,1.4-.84,2.59-2.38,2.59-1.33,0-2.38-.98-2.38-2.31v-19.74c0-1.33,1.05-2.38,2.38-2.38.91,0,1.68.42,2.1,1.19h17.64c.42-.77,1.19-1.19,2.1-1.19,1.33,0,2.38,1.05,2.38,2.38v19.74ZM976.98,59.21h17.08v-14.77h-17.08v14.77ZM980.41,11.6c.77,3.01,2.45,6.23,5.04,9.31,1.82-2.66,4.06-6.09,5.67-9.31h-10.71Z"/>
      <path class="cls-1" d="M1060.5,25.25c-5.6,4.69-16.45,11.83-20.93,14.84.28,3.15.07,6.16-.14,7.77.49,1.47-.49,3.01-2.1,3.01-1.19,0-2.1-.91-2.31-2.03.21-2.03.42-4.06.42-6.09-1.05.77-2.17,1.4-3.36,2.17-1.54.98-3.99,2.8-3.57,4.55.49,2.1,4.76,4.13,8.4,4.48,5.18.56,12.25-.49,15.96-1.26,1.47-.63,3.15.49,3.15,2.1,0,1.19-.84,2.1-1.96,2.31-5.04.91-12.25,1.75-17.92.98-3.85-.56-9.87-2.87-10.92-7.21-.77-3.01.98-5.88,5.11-8.89l4.9-3.57c-.28-2.24-.77-4.62-2.24-5.39-1.61-.77-3.29-.42-4.34.7l-2.24,4.13c-.35.91-1.05,1.4-2.03,1.4-2.1,0-3.01-2.66-1.4-3.92.49-.77.91-1.4,1.54-2.17,3.64-5.95,5.74-10.64,6.86-14.28-3.29-.49-5.32-2.17-8.05-5.53-1.47-1.26.63-3.43,2.24-1.82,1.33,1.33,3.99,3.08,6.86,3.15.21-.91.42-3.29.14-4.2-.35-.42-.49-.84-.49-1.33,0-1.89,2.17-2.66,3.57-1.4,1.05,1.05,1.4,2.52,1.19,3.99-.07,1.4,1.26,2.17,2.31,2.1,2.66-.21,3.5,3.71.35,4.48-1.33.35-2.73.49-4.13.56-1.05,3.15-2.52,6.79-4.69,10.99,4.48-.49,6.93,1.75,8.12,5.95,4.13-3.01,13.23-9.66,17.71-13.44,1.12-2.45,4.83-1.82,4.83.98,0,.84-.28,1.47-.84,1.89Z"/>
      <path class="cls-1" d="M1084.43,60.61c-4.69,0-8.47-3.78-8.47-8.47s3.78-8.47,8.47-8.47,8.54,3.78,8.54,8.47-3.78,8.47-8.54,8.47ZM1084.43,45.97c-3.36,0-6.16,2.73-6.16,6.16s2.8,6.23,6.16,6.23,6.23-2.8,6.23-6.23-2.8-6.16-6.23-6.16Z"/>
    </g>
  </g>
</svg>