<?xml version="1.0" encoding="UTF-8"?>
<svg id="_レイヤー_2" data-name="レイヤー 2" xmlns="http://www.w3.org/2000/svg" viewBox="0 0 146.38 144.73">
  <g id="_レイヤー_1-2" data-name="レイヤー 1">
    <g>
      <path d="M0,103.81v-62.79c0-13.09,4.1-23.19,12.3-30.32S29.88,0,40.43,0s19.84,3.56,28.08,10.69c8.24,7.13,12.35,17.24,12.35,30.32v62.79c0,13.09-4.12,23.18-12.35,30.27-8.24,7.1-17.59,10.64-28.08,10.64s-19.92-3.55-28.12-10.64C4.1,126.99,0,116.89,0,103.81ZM60.45,102.64v-60.45c0-6.84-1.84-12.17-5.52-16.02-3.68-3.84-8.51-5.76-14.5-5.76s-10.91,1.92-14.55,5.76c-3.65,3.84-5.47,9.18-5.47,16.02v60.45c0,6.9,1.82,12.26,5.47,16.06,3.65,3.81,8.5,5.71,14.55,5.71s10.82-1.9,14.5-5.71c3.68-3.81,5.52-9.16,5.52-16.06Z"/>
      <path d="M125.88,143.85V22.85l-20.31,14.84v-21.68L125.88,1.27h20.51v142.58h-20.51Z"/>
    </g>
  </g>
</svg>